<svg width="16" height="16" viewBox="0 0 16 16" fill="none" xmlns="http://www.w3.org/2000/svg">
<g clip-path="url(#clip0_753_217)">
<path fill-rule="evenodd" clip-rule="evenodd" d="M7.58302 1.43657C7.95338 0.776538 8.56298 0.29502 9.27782 0.0978502C9.99266 -0.0993195 10.7542 0.00399557 11.3952 0.385086L12.6056 1.10405C13.2462 1.48559 13.7136 2.11361 13.905 2.85004C14.0964 3.58648 13.9961 4.37107 13.6262 5.03137L8.04318 14.9935L3.45246 16L2 11.3987L7.58302 1.43657ZM10.6973 1.62979L11.9077 2.34875C12.228 2.53952 12.4617 2.85353 12.5574 3.22174C12.6531 3.58996 12.603 3.98226 12.418 4.31241L11.7201 5.55935L8.09334 3.40247L8.79122 2.15553C8.9764 1.82551 9.2812 1.58475 9.63862 1.48617C9.99604 1.38758 10.3768 1.43924 10.6973 1.62979ZM11.0223 6.80405L7.39547 4.64717L3.52006 11.5627L4.39241 14.3262L7.14685 13.7195L11.0223 6.80405Z" fill="#EADB7C"/>
</g>
<defs>
<clipPath id="clip0_753_217">
<rect width="16" height="16" fill="white"/>
</clipPath>
</defs>
</svg>
