<svg width="16" height="16" viewBox="0 0 16 16" fill="none" xmlns="http://www.w3.org/2000/svg">
<g clip-path="url(#clip0_753_229)">
<path d="M13.6 16C13.6 16 15 16 15 14.6667C15 13.3333 13.6 9.33333 8 9.33333C2.4 9.33333 1 13.3333 1 14.6667C1 16 2.4 16 2.4 16H13.6ZM2.4308 14.6667C2.42046 14.6653 2.41018 14.6635 2.4 14.6613C2.4014 14.3093 2.6338 13.288 3.464 12.368C4.2368 11.5053 5.5948 10.6667 8 10.6667C10.4038 10.6667 11.7618 11.5067 12.536 12.368C13.3662 13.288 13.5972 14.3107 13.6 14.6613L13.5888 14.664C13.5823 14.665 13.5758 14.6659 13.5692 14.6667H2.4308ZM8 6.66667C8.74261 6.66667 9.4548 6.38572 9.9799 5.88562C10.505 5.38552 10.8 4.70724 10.8 4C10.8 3.29276 10.505 2.61448 9.9799 2.11438C9.4548 1.61428 8.74261 1.33333 8 1.33333C7.25739 1.33333 6.5452 1.61428 6.0201 2.11438C5.495 2.61448 5.2 3.29276 5.2 4C5.2 4.70724 5.495 5.38552 6.0201 5.88562C6.5452 6.38572 7.25739 6.66667 8 6.66667ZM12.2 4C12.2 4.52529 12.0914 5.04543 11.8803 5.53073C11.6692 6.01604 11.3599 6.45699 10.9698 6.82843C10.5798 7.19986 10.1168 7.4945 9.60727 7.69552C9.0977 7.89654 8.55155 8 8 8C7.44845 8 6.9023 7.89654 6.39273 7.69552C5.88316 7.4945 5.42016 7.19986 5.03015 6.82843C4.64014 6.45699 4.33077 6.01604 4.1197 5.53073C3.90863 5.04543 3.8 4.52529 3.8 4C3.8 2.93913 4.2425 1.92172 5.03015 1.17157C5.8178 0.421427 6.88609 0 8 0C9.11391 0 10.1822 0.421427 10.9698 1.17157C11.7575 1.92172 12.2 2.93913 12.2 4Z" fill="#EADB7C"/>
</g>
<defs>
<clipPath id="clip0_753_229">
<rect width="16" height="16" fill="white"/>
</clipPath>
</defs>
</svg>
